PathFileType	4	(X/Y/Z)	Subject_003_static.trc	
DataRate	CameraRate	NumFrames	NumMarkers	Units	OrigDataRate	OrigDataStartFrame	OrigNumFrames	
100.00	100.00	5	24	mm	100.00	71	140	
Frame#	Time	LASI			RASI			LPSI			RPSI			LTHI			LKNE			LMKNE			LTIB			LANK			LHEE			LTOE			RTHI			RKNE			RMKNE			RTIB			RANK			RHEE			RTOE			LFEO			LFEP			LTIO			RFEO			RFEP			RTIO			
		X1	Y1	Z1	X2	Y2	Z2	X3	Y3	Z3	X4	Y4	Z4	X5	Y5	Z5	X6	Y6	Z6	X7	Y7	Z7	X8	Y8	Z8	X9	Y9	Z9	X10	Y10	Z10	X11	Y11	Z11	X12	Y12	Z12	X13	Y13	Z13	X14	Y14	Z14	X15	Y15	Z15	X16	Y16	Z16	X17	Y17	Z17	X18	Y18	Z18	X19	Y19	Z19	X20	Y20	Z20	X21	Y21	Z21	X22	Y22	Z22	X23	Y23	Z23	X24	Y24	Z24	

71	0.700	-840.66968	595.72040	15.59983	-780.44232	584.51050	183.73253	-929.01404	634.67017	110.95119	-905.55359	628.19147	166.66426	-910.37994	393.28107	-25.41277	-891.09985	304.72949	30.99616	-871.30243	301.59610	127.29317	-882.45782	147.32356	-16.76890	-881.61407	48.49913	39.45559	-931.05695	35.85318	64.73054	-787.35437	34.30081	75.51602	-807.01044	391.24655	272.98297	-827.14398	296.07156	238.98494	-873.22107	277.03842	148.07191	-882.62860	177.23024	337.47021	-965.87097	118.98997	347.92822	-1006.00214	158.81183	336.27780	-984.55304	28.49816	332.62372	-876.27502	309.02795	74.32914	-883.64618	553.06702	52.64346	-880.29901	48.12315	71.42635	-845.30054	293.35983	196.26216	-837.96930	544.70593	177.19286	-988.47949	120.41047	324.62393 
72	0.710	-840.84705	595.73547	15.57764	-780.53192	584.50397	183.65933	-929.13892	634.67133	110.99250	-905.63177	628.16876	166.66788	-910.37061	393.22867	-25.38483	-891.14850	304.72681	30.99676	-871.32251	301.59055	127.26506	-882.46112	147.35313	-16.81847	-881.59949	48.52850	39.45113	-931.06812	35.89741	64.73891	-787.35962	34.33067	75.51782	-806.91803	391.25073	272.76218	-827.14301	296.06433	238.92490	-873.21021	277.05197	148.00960	-882.57458	177.26276	337.42902	-965.87115	119.01677	347.93179	-1005.96259	158.84216	336.27243	-984.47546	28.45541	332.58536	-876.37708	309.03400	74.34711	-883.80389	553.07501	52.63057	-880.29749	48.15051	71.42240	-845.42383	293.35724	196.25484	-838.05786	544.69720	177.15343	-988.49921	120.45097	324.64743 
73	0.720	-841.01270	595.68079	15.52004	-780.61487	584.48322	183.60657	-929.24243	634.63733	110.89360	-905.75708	628.12518	166.57784	-910.54498	393.27176	-25.45775	-891.11145	304.74451	30.91540	-871.37323	301.59161	127.20461	-882.46350	147.31810	-16.83899	-881.61829	48.52510	39.40531	-931.11334	35.90850	64.63992	-787.34552	34.33426	75.47938	-807.06128	391.23737	272.84348	-827.19574	296.05316	238.74727	-873.23981	277.02390	147.87447	-882.58459	177.25742	337.37436	-965.88287	119.02647	347.89786	-1005.92346	158.80533	336.22940	-984.43823	28.42161	332.59668	-876.25769	309.05234	74.23756	-883.94635	553.02429	52.61388	-880.29907	48.15401	71.37596	-845.37109	293.36105	196.03123	-838.14661	544.67322	177.11880	-988.51172	120.44403	324.61322 
74	0.730	-841.19122	595.63715	15.49286	-780.66614	584.51794	183.51671	-929.33746	634.63605	110.90810	-905.88922	628.10437	166.55713	-910.60693	393.25839	-25.47045	-891.11273	304.73654	30.87601	-871.42285	301.62503	127.20560	-882.49323	147.28140	-16.84445	-881.68640	48.63938	39.33760	-931.09357	35.88098	64.64994	-787.32361	34.31247	75.45803	-807.06415	391.25012	272.81302	-827.19519	296.05368	238.77881	-873.22333	277.05966	147.80969	-882.22186	177.45103	337.11157	-965.88605	119.07071	347.89313	-1005.89697	158.77818	336.19592	-984.48724	28.46353	332.65387	-876.25360	309.04437	74.19630	-884.08862	552.98413	52.62622	-880.37219	48.26458	71.30841	-845.39014	293.35101	196.07178	-838.18933	544.69031	177.09833	-988.55798	120.56299	324.65503 
75	0.740	-841.29791	595.58954	15.44065	-780.74249	584.52057	183.46822	-929.50562	634.59363	110.80577	-906.01117	628.10376	166.47717	-910.60547	393.12424	-25.54692	-891.10382	304.69867	30.81342	-871.44690	301.61395	127.13319	-882.54010	147.27722	-16.90837	-881.67120	48.51035	39.39016	-931.09894	35.87703	64.59364	-787.35388	34.30993	75.41659	-807.09369	391.26343	272.71835	-827.22186	296.03955	238.69891	-873.24200	277.07578	147.68361	-882.56226	177.30847	337.26453	-965.85071	119.06092	347.84119	-1005.86871	158.77153	336.16324	-984.48767	28.35861	332.57895	-876.26807	309.00714	74.14168	-884.17883	552.93518	52.59478	-880.33423	48.14861	71.36016	-845.43237	293.34210	195.99820	-838.25977	544.67944	177.06210	-988.48633	120.48047	324.56323 
